<svg xmlns="http://www.w3.org/2000/svg" width="2280" height="578" viewBox="0 0 2280 578" fill="none"><path fill-rule="evenodd" clip-rule="evenodd" d="M215.213 0.554379C212.996 1.96184 172.411 42.2443 168.105 47.311C156.145 61.3857 149.327 75.4123 146.088 92.6041C144.187 102.699 144.011 115.818 145.681 123.025C147.482 130.796 150.802 140.532 153.057 144.657C157.172 152.184 157.594 153.08 157.594 154.286C157.594 156.7 155.451 156.319 148.252 152.625C144.281 150.587 139.054 148.267 136.638 147.469C123.904 143.265 106.139 142.108 93.6161 144.667C74.5112 148.573 59.9694 156.374 43.7335 171.43C29.9516 184.209 0.758491 213.94 0.758491 215.196C0.758491 215.848 1.19993 217.203 1.73871 218.208C2.27817 219.212 17.6406 234.928 35.8782 253.134C54.1158 271.339 69.1963 286.738 69.3917 287.352C69.5871 287.967 69.4654 289.195 69.1213 290.081C68.5818 291.47 46.1165 314.414 28.3893 331.681C25.2762 334.713 17.6149 342.373 11.3645 348.704L0 360.215L0.991042 362.12C2.145 364.339 44.6103 406.764 50.1077 411.189C54.4227 414.663 62.9107 420.392 66.3321 422.14C77.8047 428.002 83.1304 429.883 94.2367 432C102.716 433.616 114.926 433.729 123.455 432.272C133.274 430.595 142.795 427.08 153.538 421.167C160.997 417.061 160.999 417.846 153.562 431.964C146.092 446.148 142.862 467.159 145.786 482.566C147.309 490.598 153.135 507.85 155.179 510.382C155.629 510.94 157.293 513.617 158.875 516.332C160.458 519.048 163.835 523.863 166.378 527.034C172.387 534.523 213.896 576.481 216.14 577.334C217.401 577.814 218.227 577.733 219.228 577.032C219.98 576.506 235.586 561.157 253.908 542.924C273.991 522.939 287.899 509.604 288.929 509.346C289.896 509.102 291.398 509.317 292.395 509.839C293.362 510.345 309.192 525.733 327.572 544.033C355.084 571.426 361.312 577.308 362.81 577.308C364.814 577.308 365.4 576.766 392.426 549.929C410.447 532.033 412.867 529.365 418.351 521.335C426.674 509.15 431.532 497.895 434.604 483.685C436.207 476.274 436.168 461.385 434.526 453.597C432.395 443.491 430.54 438.731 421.811 420.979C420.812 418.947 423.068 419.563 431.009 423.488C445.822 430.811 455.894 433.318 470.495 433.314C485.511 433.311 498.153 430.346 510.813 423.862C519.308 419.511 523.528 416.692 531.199 410.244C539.223 403.5 577.684 365.054 579.051 362.41C579.987 360.6 579.908 360.4 576.715 356.534C574.898 354.333 559.81 338.995 543.187 322.45C526.565 305.904 512.423 291.48 511.76 290.396C510.687 288.639 510.661 288.221 511.522 286.557C512.053 285.529 526.823 270.445 544.344 253.037C561.865 235.628 577.059 220.227 578.107 218.812L580.013 216.238L578.606 213.853C576.964 211.069 536.398 170.671 530.401 165.848C522.564 159.544 520.916 158.369 516.03 155.601C501.075 147.132 487.915 143.685 470.59 143.701C454.396 143.716 447.116 145.523 431.125 153.498C426.708 155.7 422.672 157.502 422.154 157.502C420.934 157.502 421.541 154.981 423.676 151.187C431.951 136.478 435.437 123.823 435.437 108.489C435.437 86.8526 428.502 68.4805 413.138 49.4074C406.233 40.8368 366.342 1.154 364.002 0.528013C363.023 0.266395 361.584 0.380641 360.803 0.78287C359.486 1.46159 326.72 33.6116 303.272 57.2329C292.642 67.941 290.648 69.2579 287.892 67.388C287.057 66.8229 274.815 54.8797 260.687 40.8476C221.694 2.12138 219.446 -0.0114467 217.651 4.55514e-05C216.781 0.0061297 215.684 0.255579 215.213 0.554379ZM219.863 19.4788C221.124 20.5307 234.855 34.0679 250.377 49.5615C274.492 73.6304 278.601 78.015 278.601 79.6767C278.601 81.3221 275.629 84.6041 259.335 100.954C241.648 118.701 240.068 120.476 240.068 122.59C240.068 124.343 240.679 125.519 242.623 127.508C245.843 130.804 247.281 133.814 246.018 134.612C245.534 134.917 239.967 135.129 233.646 135.082C227.07 135.032 220.274 135.348 217.76 135.82C205.702 138.08 193.612 142.833 185.987 148.311C176.84 154.882 174.992 154.241 167.645 141.953C164.069 135.972 162.09 130.998 159.983 122.687C154.232 100.011 160.521 75.3779 177.152 55.4381C182.907 48.5387 213.629 18.3478 215.201 18.0463C216.051 17.8834 216.932 17.709 217.159 17.6583C217.387 17.6076 218.604 18.4269 219.863 19.4788ZM369.973 21.8719C399.686 51.7572 406.142 58.6945 409.394 64.231C415.892 75.2913 417.784 79.7753 420.368 90.238C422.704 99.6935 422.831 112.614 420.675 121.335C418.68 129.401 417.084 133.571 413.042 141.277C406.794 153.187 403.688 154.994 397.149 150.521C387.623 144.004 380.225 140.586 368.849 137.448C362.521 135.702 361.193 135.579 348.063 135.524C338.942 135.487 333.78 135.209 333.302 134.731C332.269 133.698 333.932 130.832 337.725 127.115C339.733 125.148 340.795 123.528 340.795 122.431C340.795 121.136 336.421 116.396 321.528 101.548C302.917 82.9945 302.262 82.2523 302.262 79.7247C302.262 77.1754 303.007 76.3676 331.292 48.246C347.258 32.3718 360.719 19.132 361.206 18.8237C361.692 18.5155 363.051 18.2586 364.227 18.2525C365.92 18.2444 367.115 18.9975 369.973 21.8719ZM291.986 91.5407C294.625 92.9354 321.647 120.332 322.44 122.418C323.404 124.954 322.518 126.056 306.979 141.647C297.937 150.718 292.724 155.459 291.541 155.685C290.559 155.873 288.843 155.632 287.727 155.148C284.865 153.909 258.527 127.181 257.977 124.957C257.707 123.865 257.933 122.419 258.559 121.239C260.242 118.062 288.04 90.9472 289.958 90.6112C290.069 90.5923 290.982 91.0101 291.986 91.5407ZM239.611 148.045C250.294 149.9 258.454 153.175 268.654 159.703C278.784 166.185 278.038 169.687 265.288 175.497C256.537 179.485 249.074 181.21 238.713 181.638C223.704 182.259 213.014 180.087 201.236 174.027C190.737 168.625 186.753 165.145 187.688 162.197C189.215 157.387 204.669 149.799 216.408 148.094C227.989 146.413 230.183 146.408 239.611 148.045ZM362.765 147.985C378.2 150.663 392.848 158.029 392.848 163.113C392.848 166.606 382.614 173.579 371.444 177.698C362.664 180.935 356.418 181.999 346.203 181.998C335.282 181.998 328.674 180.871 319.5 177.445C302.743 171.188 300.607 166.905 310.836 160.071C319.81 154.076 329.279 150.221 339.443 148.424C350.726 146.43 353.502 146.377 362.765 147.985ZM121.089 157.812C135.446 160.862 151.98 169.334 153.827 174.587C154.561 176.674 154.109 177.717 148.839 186.099C144.692 192.694 141.752 199.656 139.076 209.217C137.053 216.444 136.994 217.057 136.985 230.962C136.98 238.832 136.774 245.472 136.528 245.718C135.838 246.409 133.084 244.689 129.226 241.159C127.013 239.134 125.097 237.948 124.04 237.948C122.75 237.948 117.922 242.346 103.083 257.045C82.3327 277.598 81.466 278.236 78.0055 275.502C76.9766 274.69 63.2819 261.214 47.5726 245.557C28.8693 226.916 19.0109 216.622 19.0109 215.733C19.0109 212.513 21.2999 209.8 36.9524 194.465C55.6192 176.177 59.6848 172.736 69.3241 167.07C77.3322 162.364 83.2832 159.884 90.1096 158.408C92.8339 157.819 95.9754 157.101 97.0908 156.813C101.609 155.644 113.145 156.124 121.089 157.812ZM488.203 158.121C496.721 160 503.923 162.833 511.432 167.257C519.494 172.008 525.271 176.751 535.205 186.777C539.697 191.311 547.379 198.962 552.275 203.779C560.256 211.633 561.176 212.777 561.176 214.854C561.176 217.005 559.058 219.294 531.6 246.828C503.57 274.936 501.897 276.486 499.598 276.483C497.336 276.481 496.069 275.387 481.007 260.445C458.027 237.647 458.302 237.883 455.613 238.653C454.403 239 452.03 240.622 450.34 242.256C448.65 243.89 446.578 245.58 445.735 246.011C444.397 246.696 444.132 246.601 443.637 245.264C443.326 244.422 443.216 238.857 443.394 232.897C443.746 221.105 443.144 215.534 440.561 206.658C437.568 196.373 436.016 193.073 429.974 184.156C428.193 181.527 426.538 178.59 426.296 177.628C425.291 173.622 429.497 169.828 441.521 163.895C448.503 160.45 450.463 159.801 460.05 157.751C469.133 155.81 478.271 155.93 488.203 158.121ZM191.608 184.496C199.678 188.83 205.101 190.818 214.863 193.024C229.328 196.293 245.577 195.244 260.353 190.084C262.942 189.18 264.56 188.963 265.666 189.373C267.578 190.08 267.504 191.102 264.816 201.105C260.103 218.647 261.065 233.914 268.071 252.691C270.956 260.423 276.982 269.845 283.568 276.921C286.866 280.464 287.487 280.844 289.98 280.844C293.275 280.844 294.931 279.454 301.286 271.358C308.567 262.082 312.997 252.633 316.161 239.638C319.261 226.902 318.956 211.949 315.353 200.091C312.366 190.255 313.027 188.183 318.626 189.838C333.648 194.278 333.591 194.269 348.231 194.294C360.451 194.314 362.808 194.136 368.173 192.782C377.043 190.545 386.273 186.67 392.014 182.773C394.742 180.922 396.771 180.704 397.345 182.199C397.568 182.783 395.648 187.441 392.955 192.846C385.819 207.17 382.749 221.315 383.659 235.675C384.072 242.204 386.282 252.57 388.569 258.706C389.193 260.378 389.444 262.286 389.18 263.337C388.776 264.949 388.486 265.093 386.227 264.806C384.849 264.632 381.592 263.861 378.989 263.095C361.222 257.86 337.863 260.401 319.838 269.528C314.442 272.261 306.3 277.955 301.804 282.139C298.229 285.467 297.898 286.018 297.898 288.652C297.898 291.253 298.234 291.837 301.417 294.763C310.778 303.371 322.768 309.954 336.062 313.786C343.731 315.997 344.017 316.027 357.019 315.963C369.783 315.9 370.437 315.829 377.637 313.721C388.632 310.502 389.312 310.44 389.856 312.606C390.119 313.653 389.871 315.577 389.26 317.24C388.091 320.42 385.551 329.467 384.665 333.604C384.348 335.091 384.08 341.175 384.071 347.124C384.058 356.329 384.301 358.947 385.704 364.701C388.07 374.392 393.441 387.732 395.488 388.997C395.841 389.216 396.491 390.491 396.934 391.831C397.587 393.813 397.565 394.38 396.814 394.871C395.5 395.727 393.602 395.139 389.272 392.531C384.384 389.588 376.736 386.618 367.835 384.205C361.162 382.397 359.989 382.286 348.231 382.356C335.965 382.43 335.555 382.479 326.936 384.923C315.81 388.077 314.769 388.284 313.562 387.584C312.697 387.081 312.693 386.583 313.538 383.629C317.882 368.428 317.976 367.849 318.039 355.912C318.091 346.003 317.881 343.535 316.515 337.998C312.77 322.823 306.579 310.817 297.043 300.24C294.331 297.232 293.342 296.595 290.895 296.276C288.048 295.904 287.885 295.992 284.086 299.897C278.104 306.049 271.036 317.258 267.813 325.705C263.032 338.239 260.983 352.434 262.348 363.572C263.209 370.593 264.545 376.681 266.125 380.769C266.666 382.172 267.109 384.192 267.109 385.26C267.109 387.903 264.815 388.429 260.553 386.762C258.767 386.064 254.112 384.778 250.208 383.904C244.254 382.572 241.312 382.324 231.956 382.361C222.287 382.401 219.857 382.643 213.704 384.175C203.985 386.593 196.567 389.414 190.519 392.991C187.715 394.647 184.5 396.206 183.373 396.454C181.37 396.894 181.336 396.859 181.892 394.916C182.206 393.823 183.995 390.38 185.869 387.265C190.522 379.526 193.03 372.653 195.175 361.757C196.797 353.52 196.949 351.555 196.594 343.406C196.201 334.35 194.056 322.835 191.723 317.252C191.176 315.943 190.912 314.143 191.135 313.252C191.618 311.329 193.627 311.136 198.204 312.574C206.63 315.22 212.706 316.027 224.182 316.026C234.554 316.025 236.399 315.84 243.11 314.128C254.957 311.107 269.449 303.382 278.032 295.514C282.5 291.417 283.561 289.126 282.337 286.216C280.312 281.4 264.03 270.191 252.574 265.726C241.566 261.436 236.727 260.593 223.168 260.602C211.684 260.61 211.056 260.684 201.712 263.137C196.418 264.527 191.966 265.664 191.82 265.664C190.841 265.664 190.937 261.987 192.005 258.566C196.567 243.953 196.469 244.58 196.41 230.511C196.358 217.931 196.259 216.971 194.23 209.485C192.094 201.605 190.102 196.74 185.677 188.598C182.722 183.162 182.636 181.855 185.186 181.216C185.303 181.187 188.193 182.662 191.608 184.496ZM292.226 183.127C295.468 185.677 301.411 199.626 303.908 210.542C306.413 221.497 305.609 234.435 301.666 246.599C299.324 253.823 295.35 261.528 292.614 264.15C290.813 265.875 290.609 265.92 288.88 264.958C286.082 263.403 280.883 254.132 278.526 246.492C275.573 236.924 274.998 232.217 275.417 221.047C275.842 209.716 277.444 203.128 282.243 192.98C284.875 187.416 288.794 181.838 290.072 181.838C290.356 181.838 291.324 182.418 292.226 183.127ZM167.83 187.44C170.098 189.341 175.23 197.306 177.516 202.475C180.327 208.832 182.545 217.387 183.419 225.249C185.099 240.36 181.385 258.128 174.196 269.366C169.303 277.016 165.324 274.892 157.338 260.366C145.585 238.987 146.305 209.718 159.055 190.624C162.418 185.589 164.653 184.777 167.83 187.44ZM419.156 187.64C422.86 190.758 428.8 204.348 430.484 213.557C433.364 229.309 430.924 245.018 423.212 260.376C418.059 270.638 413.829 274.759 409.875 273.369C407.394 272.496 402.335 262.667 399.484 253.18C397.284 245.86 397.242 245.483 397.251 232.877C397.258 222.703 397.509 219.125 398.457 215.663C400.289 208.974 403.922 200.546 407.447 194.802C413.136 185.533 415.171 184.288 419.156 187.64ZM142.615 270.933C151.042 279.402 156.914 285.836 157.179 286.892C157.456 287.996 157.208 289.463 156.517 290.799C154.993 293.747 130.242 318.754 127.881 319.733C124.077 321.308 123.034 320.605 108.853 306.913C101.35 299.669 94.4469 292.587 93.5126 291.175C92.0301 288.935 91.9226 288.405 92.6676 287.013C93.1368 286.137 100.169 278.803 108.293 270.717L123.066 256.015L125.78 256.379C128.249 256.71 129.773 258.027 142.615 270.933ZM472.63 270.565C480.682 278.467 487.602 285.751 488.008 286.754C489.05 289.327 487.547 291.162 471.354 307.07C459.264 318.947 457.52 320.42 455.557 320.411C454.344 320.405 452.95 320.146 452.46 319.836C451.971 319.525 445.366 313.258 437.784 305.91C423.557 292.121 421.883 289.903 423.175 286.549C423.518 285.659 426.797 281.998 430.463 278.414C434.128 274.83 440.017 268.932 443.549 265.308C447.081 261.683 450.884 258.152 451.999 257.461C456.382 254.747 456.742 254.976 472.63 270.565ZM239.73 274.489C246.916 275.827 254.167 278.653 261.755 283.072C269.469 287.564 268.552 290.358 257.549 295.894C243.901 302.761 232.03 304.764 216.517 302.819C206.259 301.532 190.839 295.606 186.156 291.15C183.626 288.742 183.471 287.948 185.222 286.363C186.94 284.808 193.693 280.779 197.13 279.259C200.914 277.585 211.746 274.569 216.746 273.797C221.566 273.052 234.031 273.428 239.73 274.489ZM367.894 274.456C377.966 277.021 381.819 278.327 387.284 281.029C393.182 283.946 396.904 286.685 396.904 288.109C396.904 291.474 387.629 296.7 374.931 300.49C366.279 303.073 360.36 303.74 350.145 303.287C342.37 302.94 339.852 302.539 334.259 300.754C325.019 297.803 318.174 294.421 314.98 291.227L312.267 288.514L314.446 286.267C316.484 284.164 329.446 277.192 331.44 277.127C331.937 277.111 333.561 276.627 335.048 276.052C341.372 273.608 360.846 272.662 367.894 274.456ZM101.485 318.101C111.338 327.893 120.208 336.528 121.196 337.289C123.897 339.371 125.61 339.008 129.168 335.598C133.465 331.48 135.15 330.365 136.369 330.833C137.252 331.172 137.329 332.902 136.939 343.568C136.515 355.124 136.595 356.43 138.184 364.025C140.615 375.633 144.87 385.259 152.623 396.684C154.908 400.049 154.713 402.837 152.017 405.374C149.297 407.934 139.912 413.209 133.581 415.736C113.502 423.752 89.8216 421.898 70.2218 410.777C59.9085 404.925 54.6512 400.471 36.4183 382.141C20.0763 365.712 19.0109 364.491 19.0109 362.189C19.0109 359.856 20.4542 358.302 48.7529 330.15C65.1112 313.876 78.8742 300.328 79.3373 300.042C81.4728 298.722 84.3175 301.042 101.485 318.101ZM531.253 329.388C566.635 364.769 564.329 360.974 555.937 370.007C546.753 379.891 524.689 401.078 519.693 404.809C506.835 414.414 494.732 418.994 478.026 420.577C469.873 421.35 469.257 421.314 460.526 419.555C448.775 417.188 437.073 412.074 429.179 405.852C427.582 404.593 425.973 401.792 425.973 400.268C425.973 399.987 427.832 396.888 430.105 393.383C440.879 376.765 445.274 359.915 443.663 341.398C443.277 336.958 443.289 333.627 443.694 332.463C444.331 330.638 444.371 330.625 446.142 331.746C447.133 332.373 449.568 334.188 451.554 335.78C453.541 337.371 455.687 338.674 456.324 338.674C458.243 338.674 460.741 336.396 479.502 317.548C494.602 302.378 497.809 299.465 499.416 299.465C501.039 299.465 505.889 304.023 531.253 329.388ZM171.079 303.841C172.473 304.562 173.846 306.569 176.047 311.108C186.441 332.526 186.599 355.233 176.501 376.017C169.726 389.962 164.995 393.606 160.423 388.4C157.587 385.17 153.96 378.378 152.279 373.151C150.6 367.929 148.813 357.285 148.809 352.489C148.804 346.418 150.791 333.753 152.621 328.196C156.806 315.489 164.55 303.235 168.613 302.891C168.91 302.865 170.02 303.293 171.079 303.841ZM413.929 303.441C415.813 304.16 418.67 308.042 422.755 315.437C433.862 335.545 434.839 361.383 425.207 380.244C418.168 394.024 414.866 394.292 407.148 381.707C402.63 374.34 401.46 371.601 399.155 363.011C397.398 356.461 397.251 354.973 397.259 343.744C397.267 331.994 397.342 331.33 399.438 324.424C402.983 312.743 407.025 304.708 409.946 303.531C411.901 302.744 412.089 302.74 413.929 303.441ZM292.985 312.988C295.289 314.8 300.382 325.395 302.57 332.928C306.265 345.646 306.4 358.191 302.981 371.165C300.503 380.565 294.573 392.433 291.541 394.056C287.342 396.304 279.614 381.551 276.268 364.898C274.959 358.384 274.918 346.442 276.182 339.917C278.197 329.513 284.05 315.998 287.829 313.027C290.036 311.291 290.82 311.285 292.985 312.988ZM254.714 397.411C258.493 398.522 262.144 399.734 262.826 400.104C263.508 400.473 266.471 401.937 269.409 403.357C273.512 405.339 274.948 406.407 275.602 407.962C277.154 411.647 274.914 414.013 264.069 420.143C255.162 425.179 249.879 427.062 240.233 428.637C222.032 431.613 203.847 427.955 190.792 418.694C187.779 416.557 186.445 413.934 187.452 412.133C189.366 408.714 203.399 400.7 212.573 397.787C220.42 395.296 224.749 394.824 237.026 395.125C246.59 395.359 248.638 395.624 254.714 397.411ZM357.618 395.494C365.039 396.698 373.333 399.441 379.315 402.671C394.433 410.831 396.515 414.215 389.397 419.062C382.497 423.762 374.618 426.821 364.844 428.596C355.67 430.261 350.785 430.27 340.457 428.642C329.536 426.92 321.598 423.828 311.66 417.423C305.896 413.708 303.856 410.983 304.919 408.417C306.64 404.262 323.257 397.041 334.71 395.47C340.363 394.695 352.774 394.708 357.618 395.494ZM292.312 421.407C295.045 422.581 323.218 450.947 323.218 452.523C323.218 453.163 322.883 454.312 322.473 455.078C320.979 457.871 293.029 485.286 291.212 485.742C288.753 486.359 287.562 485.369 271.722 469.552C258.225 456.074 256.68 453.959 258.222 451.077C259.158 449.33 286.321 422.426 288.208 421.378C290.135 420.309 289.751 420.306 292.312 421.407ZM180.732 424.945C181.895 425.547 184.237 427.012 185.938 428.201C192.681 432.917 201.002 436.637 210.567 439.21C217.025 440.947 218.281 441.056 232.294 441.087C246.256 441.118 248.856 441.377 248.856 442.738C248.856 443.043 246.807 445.505 244.303 448.21C239.659 453.226 238.946 455.187 240.976 457.361C241.406 457.821 250.008 466.517 260.092 476.685C272.181 488.875 278.577 495.81 278.868 497.044C279.278 498.786 278.006 500.212 260.777 517.325C216.527 561.276 218.898 559.055 216.228 559.055C213.962 559.055 212.671 557.922 196.282 541.556C174.363 519.668 168.607 512.139 162.798 497.759C157.746 485.256 156.452 468.481 159.522 455.287C162.146 444.01 171.935 425.549 175.874 424.45C178.362 423.757 178.451 423.765 180.732 424.945ZM404.766 424.528C406.388 424.528 408.802 427.647 413.069 435.257C420.336 448.219 423.017 459.457 422.362 474.215C421.591 491.587 416.475 505.081 405.289 519.24C402.528 522.734 392.745 533.121 383.549 542.324C367.276 558.608 366.756 559.055 364.123 559.055C361.459 559.055 360.97 558.606 331.502 529.144C310.174 507.821 301.586 498.806 301.586 497.745C301.586 495.558 306.325 490.281 324.501 472.229C337.418 459.4 340.795 455.684 340.795 454.295C340.795 453.037 339.557 451.317 336.4 448.189C331.946 443.774 331.21 442.367 332.995 441.683C333.539 441.474 340.612 441.253 348.713 441.19C362.504 441.086 363.912 440.957 370.831 439.16C379.44 436.927 386.593 433.674 395.529 427.932C399.049 425.67 402.344 423.979 402.851 424.174C403.359 424.368 404.22 424.528 404.766 424.528Z" fill="#FFE3CA"></path><path d="M698.113 455.883V451.214L702.56 449.658C707.303 448.176 709.674 444.47 709.674 438.542C709.822 430.093 709.896 421.497 709.896 412.752C709.896 403.859 709.896 394.818 709.896 385.629V377.848C709.896 369.251 709.896 360.655 709.896 352.058C709.896 343.462 709.822 334.866 709.674 326.269C709.674 320.192 707.377 316.413 702.782 314.931L698.113 313.597V308.928H756.584C772.147 308.928 785.56 311.818 796.824 317.599C808.089 323.379 816.759 331.753 822.836 342.721C828.913 353.541 831.951 366.658 831.951 382.072C831.951 397.783 828.616 411.122 821.947 422.09C815.425 433.058 806.162 441.432 794.157 447.212C782.299 452.993 768.441 455.883 752.582 455.883H698.113ZM741.911 449.435H753.249C763.773 449.435 772.295 447.36 778.816 443.21C785.486 439.06 790.377 432.094 793.49 422.312C796.602 412.382 798.158 399.042 798.158 382.294C798.158 365.546 796.602 352.281 793.49 342.499C790.377 332.716 785.56 325.75 779.039 321.6C772.665 317.45 764.365 315.375 754.139 315.375H741.911C741.763 325.602 741.689 335.977 741.689 346.5C741.689 356.875 741.689 367.325 741.689 377.848V385.407C741.689 396.523 741.689 407.417 741.689 418.088C741.689 428.611 741.763 439.06 741.911 449.435ZM896.977 345.833C906.315 345.833 914.318 347.76 920.988 351.614C927.657 355.467 932.771 360.803 936.328 367.621C940.033 374.291 941.886 381.998 941.886 390.742C941.886 392.669 941.812 394.522 941.664 396.301C941.515 397.931 941.219 399.487 940.774 400.969H873.855C874.004 416.235 876.82 427.203 882.304 433.873C887.936 440.543 896.088 443.877 906.759 443.877C914.17 443.877 920.173 442.692 924.767 440.32C929.362 437.801 933.586 434.318 937.44 429.871L940.997 433.206C936.55 441.358 930.473 447.731 922.766 452.326C915.207 456.772 906.166 458.995 895.643 458.995C885.12 458.995 875.856 456.772 867.853 452.326C859.849 447.879 853.55 441.506 848.955 433.206C844.509 424.758 842.286 414.679 842.286 402.97C842.286 390.817 844.88 380.516 850.067 372.067C855.403 363.619 862.221 357.172 870.521 352.725C878.969 348.131 887.788 345.833 896.977 345.833ZM895.865 352.281C891.567 352.281 887.788 353.541 884.527 356.06C881.414 358.432 878.895 362.73 876.968 368.955C875.189 375.032 874.152 383.628 873.855 394.744H913.651C915.281 379.775 914.689 368.955 911.873 362.285C909.056 355.616 903.721 352.281 895.865 352.281ZM953.209 455.883V451.659L956.766 450.769C961.657 449.287 964.103 445.656 964.103 439.876V374.291C963.954 371.178 963.436 368.807 962.546 367.176C961.657 365.398 959.73 364.212 956.766 363.619L953.209 362.73V358.728L989.225 345.833L991.893 348.279L993.449 362.063C998.785 357.32 1004.71 353.466 1011.23 350.502C1017.9 347.39 1024.43 345.833 1030.8 345.833C1040.58 345.833 1048.07 348.501 1053.25 353.837C1058.59 359.173 1061.26 367.325 1061.26 378.292V440.098C1061.26 445.878 1063.93 449.51 1069.26 450.992L1071.71 451.659V455.883H1020.57V451.659L1023.91 450.769C1028.8 449.139 1031.24 445.508 1031.24 439.876V373.846C1031.24 368.658 1030.13 364.879 1027.91 362.508C1025.69 360.136 1021.98 358.95 1016.79 358.95C1009.53 358.95 1001.97 362.137 994.116 368.51V440.098C994.116 445.878 996.71 449.51 1001.9 450.992L1004.12 451.659V455.883H953.209ZM1106.66 333.606C1101.77 333.606 1097.62 332.049 1094.21 328.937C1090.8 325.824 1089.1 321.897 1089.1 317.154C1089.1 312.263 1090.8 308.335 1094.21 305.371C1097.62 302.258 1101.77 300.702 1106.66 300.702C1111.55 300.702 1115.7 302.258 1119.11 305.371C1122.52 308.335 1124.22 312.263 1124.22 317.154C1124.22 321.897 1122.52 325.824 1119.11 328.937C1115.7 332.049 1111.55 333.606 1106.66 333.606ZM1081.09 455.883V451.659L1084.43 450.769C1087.39 449.88 1089.39 448.546 1090.43 446.768C1091.47 444.989 1092.06 442.618 1092.21 439.653V398.746C1092.21 394.151 1092.21 389.927 1092.21 386.074C1092.21 382.072 1092.13 377.996 1091.99 373.846C1091.99 370.882 1091.39 368.584 1090.21 366.954C1089.17 365.175 1087.17 363.99 1084.21 363.397L1081.09 362.73V358.728L1120 345.833L1122.67 348.279L1122 379.849V439.876C1122 442.84 1122.52 445.211 1123.56 446.99C1124.74 448.769 1126.74 450.102 1129.56 450.992L1132 451.659V455.883H1081.09ZM1180.34 458.995C1173.23 458.995 1166.78 458.18 1161 456.55C1155.37 455.068 1149.96 452.919 1144.77 450.102V423.868H1150.77L1157.44 436.541C1160.26 442.025 1163.44 446.101 1167 448.769C1170.71 451.436 1175.38 452.77 1181.01 452.77C1187.97 452.77 1193.53 451.288 1197.68 448.324C1201.83 445.211 1203.91 441.061 1203.91 435.874C1203.91 431.131 1202.35 427.277 1199.24 424.313C1196.13 421.349 1190.57 418.607 1182.56 416.087L1172.78 412.975C1164.04 410.307 1157.07 406.305 1151.88 400.969C1146.84 395.485 1144.32 388.667 1144.32 380.516C1144.32 374.142 1146.03 368.362 1149.44 363.175C1152.85 357.839 1157.81 353.615 1164.33 350.502C1170.85 347.39 1178.78 345.833 1188.12 345.833C1194.2 345.833 1199.76 346.574 1204.8 348.057C1209.98 349.391 1215.02 351.317 1219.91 353.837L1218.58 377.625H1212.8L1205.91 364.953C1203.54 360.21 1201.09 356.95 1198.57 355.171C1196.2 353.244 1192.49 352.281 1187.45 352.281C1182.12 352.281 1177.38 353.689 1173.23 356.505C1169.22 359.173 1167.22 362.952 1167.22 367.843C1167.22 372.438 1168.93 376.217 1172.34 379.182C1175.75 381.998 1181.23 384.666 1188.79 387.185L1198.35 390.075C1209.17 393.484 1216.88 398.005 1221.47 403.637C1226.06 409.269 1228.36 416.013 1228.36 423.868C1228.36 434.392 1224.14 442.914 1215.69 449.435C1207.39 455.809 1195.61 458.995 1180.34 458.995ZM1294.07 345.833C1303.41 345.833 1311.41 347.76 1318.08 351.614C1324.75 355.467 1329.87 360.803 1333.42 367.621C1337.13 374.291 1338.98 381.998 1338.98 390.742C1338.98 392.669 1338.91 394.522 1338.76 396.301C1338.61 397.931 1338.32 399.487 1337.87 400.969H1270.95C1271.1 416.235 1273.92 427.203 1279.4 433.873C1285.03 440.543 1293.18 443.877 1303.86 443.877C1311.27 443.877 1317.27 442.692 1321.86 440.32C1326.46 437.801 1330.68 434.318 1334.54 429.871L1338.09 433.206C1333.65 441.358 1327.57 447.731 1319.86 452.326C1312.3 456.772 1303.26 458.995 1292.74 458.995C1282.22 458.995 1272.95 456.772 1264.95 452.326C1256.95 447.879 1250.65 441.506 1246.05 433.206C1241.61 424.758 1239.38 414.679 1239.38 402.97C1239.38 390.817 1241.98 380.516 1247.16 372.067C1252.5 363.619 1259.32 357.172 1267.62 352.725C1276.07 348.131 1284.88 345.833 1294.07 345.833ZM1292.96 352.281C1288.66 352.281 1284.88 353.541 1281.62 356.06C1278.51 358.432 1275.99 362.73 1274.06 368.955C1272.29 375.032 1271.25 383.628 1270.95 394.744H1310.75C1312.38 379.775 1311.79 368.955 1308.97 362.285C1306.15 355.616 1300.82 352.281 1292.96 352.281ZM1475.63 459.662C1461.26 459.662 1448.29 456.698 1436.73 450.769C1425.17 444.841 1415.98 436.096 1409.16 424.535C1402.49 412.975 1399.16 398.894 1399.16 382.294C1399.16 369.844 1401.16 358.802 1405.16 349.168C1409.31 339.534 1414.94 331.457 1422.05 324.935C1429.32 318.265 1437.62 313.3 1446.95 310.04C1456.29 306.631 1466.22 304.926 1476.75 304.926C1484.9 304.926 1492.53 305.89 1499.65 307.816C1506.76 309.595 1513.58 312.263 1520.1 315.82L1520.99 344.944H1514.99L1505.65 327.381C1504.17 324.416 1502.54 321.749 1500.76 319.377C1499.13 317.006 1496.98 315.301 1494.31 314.264C1490.6 312.485 1486.23 311.596 1481.19 311.596C1472.45 311.596 1464.44 313.819 1457.18 318.265C1450.07 322.712 1444.36 330.123 1440.06 340.498C1435.76 350.724 1433.62 364.731 1433.62 382.517C1433.62 400.154 1435.62 414.16 1439.62 424.535C1443.77 434.91 1449.33 442.321 1456.29 446.768C1463.26 451.066 1471.11 453.215 1479.86 453.215C1483.86 453.215 1487.12 452.919 1489.64 452.326C1492.16 451.733 1494.68 450.918 1497.2 449.88C1500.16 448.694 1502.46 446.99 1504.09 444.767C1505.72 442.395 1507.13 439.727 1508.32 436.763L1516.76 416.532H1522.77L1521.88 448.546C1515.5 452.103 1508.46 454.845 1500.76 456.772C1493.05 458.699 1484.68 459.662 1475.63 459.662ZM1565.35 458.995C1556.9 458.995 1549.71 456.624 1543.78 451.881C1538 446.99 1535.11 440.024 1535.11 430.983C1535.11 423.868 1538.52 417.347 1545.34 411.418C1552.31 405.342 1563.2 400.895 1578.02 398.079C1580.54 397.486 1583.43 396.967 1586.69 396.523C1590.1 395.93 1593.44 395.337 1596.7 394.744V378.959C1596.7 368.881 1595.44 361.915 1592.92 358.061C1590.4 354.208 1586.4 352.281 1580.91 352.281H1580.25C1576.84 352.281 1574.09 353.392 1572.02 355.616C1570.09 357.691 1568.83 361.174 1568.24 366.065L1567.57 368.955C1567.13 374.883 1565.57 379.256 1562.9 382.072C1560.24 384.74 1556.9 386.074 1552.9 386.074C1549.19 386.074 1546.08 384.962 1543.56 382.739C1541.19 380.367 1540.01 377.329 1540.01 373.624C1540.01 367.547 1542.08 362.433 1546.23 358.283C1550.38 354.133 1555.86 351.021 1562.68 348.946C1569.65 346.871 1577.13 345.833 1585.14 345.833C1598.33 345.833 1608.41 349.02 1615.37 355.393C1622.34 361.766 1625.82 372.142 1625.82 386.518V436.096C1625.82 442.469 1628.86 445.656 1634.94 445.656H1640.05L1642.27 448.102C1639.61 451.51 1636.64 454.104 1633.38 455.883C1630.12 457.81 1625.67 458.773 1620.04 458.773C1613.67 458.773 1608.55 457.291 1604.7 454.327C1601 451.214 1598.55 447.138 1597.36 442.099C1592.62 447.138 1587.95 451.214 1583.36 454.327C1578.76 457.439 1572.76 458.995 1565.35 458.995ZM1578.24 444.767C1581.21 444.767 1584.02 444.1 1586.69 442.766C1589.36 441.432 1592.7 439.209 1596.7 436.096V400.525C1592.84 401.117 1588.92 401.859 1584.91 402.748C1578.54 404.23 1573.35 406.972 1569.35 410.974C1565.5 414.976 1563.57 420.385 1563.57 427.203C1563.57 433.132 1564.91 437.578 1567.57 440.543C1570.39 443.359 1573.95 444.767 1578.24 444.767ZM1646.66 455.883V451.659L1650 450.547C1652.96 449.806 1654.96 448.546 1656 446.768C1657.19 444.989 1657.78 442.618 1657.78 439.653V374.513C1657.63 371.252 1657.04 368.807 1656 367.176C1654.96 365.398 1652.96 364.212 1650 363.619L1646.66 362.73V358.728L1682.9 345.833L1685.57 348.279L1687.57 367.843V369.4C1689.79 365.25 1692.61 361.396 1696.02 357.839C1699.43 354.282 1703.13 351.391 1707.13 349.168C1711.14 346.945 1715.14 345.833 1719.14 345.833C1724.77 345.833 1729 347.316 1731.81 350.28C1734.63 353.244 1736.04 357.024 1736.04 361.618C1736.04 366.658 1734.63 370.511 1731.81 373.179C1729 375.699 1725.59 376.958 1721.58 376.958C1715.66 376.958 1710.54 374.291 1706.24 368.955L1705.8 368.51C1704.32 366.732 1702.61 365.768 1700.69 365.62C1698.91 365.324 1697.13 366.213 1695.35 368.288C1693.87 369.77 1692.46 371.549 1691.13 373.624C1689.94 375.55 1688.83 377.848 1687.79 380.516V438.764C1687.79 441.58 1688.38 443.952 1689.57 445.878C1690.76 447.657 1692.76 448.917 1695.57 449.658L1702.24 451.659V455.883H1646.66ZM1795.67 456.55L1756.54 362.508C1754.91 358.358 1752.02 355.69 1747.87 354.504L1743.2 353.392V349.168H1799.45V353.392L1793.67 354.726C1788.92 355.912 1787.51 358.95 1789.44 363.841L1812.79 425.869L1834.57 364.286C1835.31 361.766 1835.46 359.766 1835.02 358.283C1834.72 356.653 1833.31 355.541 1830.79 354.949L1824.35 353.392V349.168H1858.14V353.392L1850.8 355.171C1846.5 356.208 1843.61 358.876 1842.13 363.175L1808.56 456.55H1795.67ZM1891.23 458.995C1882.79 458.995 1875.6 456.624 1869.67 451.881C1863.89 446.99 1861 440.024 1861 430.983C1861 423.868 1864.41 417.347 1871.22 411.418C1878.19 405.342 1889.08 400.895 1903.91 398.079C1906.43 397.486 1909.32 396.967 1912.58 396.523C1915.99 395.93 1919.32 395.337 1922.58 394.744V378.959C1922.58 368.881 1921.32 361.915 1918.8 358.061C1916.28 354.208 1912.28 352.281 1906.8 352.281H1906.13C1902.72 352.281 1899.98 353.392 1897.9 355.616C1895.98 357.691 1894.72 361.174 1894.12 366.065L1893.46 368.955C1893.01 374.883 1891.46 379.256 1888.79 382.072C1886.12 384.74 1882.79 386.074 1878.78 386.074C1875.08 386.074 1871.97 384.962 1869.45 382.739C1867.07 380.367 1865.89 377.329 1865.89 373.624C1865.89 367.547 1867.96 362.433 1872.11 358.283C1876.26 354.133 1881.75 351.021 1888.57 348.946C1895.53 346.871 1903.02 345.833 1911.02 345.833C1924.21 345.833 1934.29 349.02 1941.26 355.393C1948.22 361.766 1951.71 372.142 1951.71 386.518V436.096C1951.71 442.469 1954.74 445.656 1960.82 445.656H1965.93L1968.16 448.102C1965.49 451.51 1962.53 454.104 1959.26 455.883C1956 457.81 1951.56 458.773 1945.93 458.773C1939.55 458.773 1934.44 457.291 1930.58 454.327C1926.88 451.214 1924.43 447.138 1923.25 442.099C1918.51 447.138 1913.84 451.214 1909.24 454.327C1904.65 457.439 1898.64 458.995 1891.23 458.995ZM1904.13 444.767C1907.09 444.767 1909.91 444.1 1912.58 442.766C1915.24 441.432 1918.58 439.209 1922.58 436.096V400.525C1918.73 401.117 1914.8 401.859 1910.8 402.748C1904.43 404.23 1899.24 406.972 1895.24 410.974C1891.38 414.976 1889.46 420.385 1889.46 427.203C1889.46 433.132 1890.79 437.578 1893.46 440.543C1896.27 443.359 1899.83 444.767 1904.13 444.767ZM1973.64 455.883V451.659L1976.98 450.769C1981.87 449.139 1984.31 445.434 1984.31 439.653C1984.31 434.614 1984.31 429.575 1984.31 424.535C1984.46 419.348 1984.54 414.234 1984.54 409.195V324.713C1984.54 321.6 1984.02 319.303 1982.98 317.821C1981.94 316.19 1979.94 315.005 1976.98 314.264L1973.64 313.374V309.15L2012.55 299.813L2015.44 301.814L2014.55 333.161V439.653C2014.7 442.618 2015.29 445.063 2016.33 446.99C2017.51 448.769 2019.51 450.028 2022.33 450.769L2025.44 451.659V455.883H1973.64ZM2035.95 455.883V451.436L2038.84 450.547C2044.18 448.917 2046.85 445.211 2046.85 439.431V324.935C2046.85 321.823 2046.33 319.525 2045.29 318.043C2044.25 316.413 2042.25 315.227 2039.29 314.486L2035.95 313.597V309.373L2073.53 299.813L2077.08 301.814L2076.19 333.161V361.618C2081.38 357.32 2087.01 353.615 2093.09 350.502C2099.32 347.39 2105.98 345.833 2113.1 345.833C2122.88 345.833 2130.51 348.575 2136 354.059C2141.63 359.543 2144.45 367.992 2144.45 379.404V439.653C2144.45 442.618 2145.04 444.989 2146.23 446.768C2147.41 448.546 2149.49 449.88 2152.45 450.769L2154.45 451.436V455.883H2103.76V451.436L2106.43 450.547C2111.77 449.065 2114.43 445.36 2114.43 439.431V375.18C2114.43 369.103 2113.4 364.879 2111.32 362.508C2109.25 360.136 2105.61 358.95 2100.43 358.95C2096.87 358.95 2093.09 359.617 2089.09 360.951C2085.23 362.285 2081.16 364.508 2076.86 367.621V439.876C2076.86 442.84 2077.45 445.211 2078.64 446.99C2079.83 448.769 2081.83 450.028 2084.64 450.769L2086.64 451.436V455.883H2035.95ZM2218.97 458.995C2208 458.995 2198.37 456.698 2190.07 452.103C2181.91 447.509 2175.54 440.987 2170.95 432.539C2166.5 424.091 2164.28 414.012 2164.28 402.303C2164.28 390.594 2166.65 380.516 2171.39 372.067C2176.28 363.619 2182.8 357.172 2190.96 352.725C2199.26 348.131 2208.59 345.833 2218.97 345.833C2229.34 345.833 2238.61 348.131 2246.76 352.725C2255.06 357.172 2261.58 363.619 2266.32 372.067C2271.21 380.367 2273.66 390.446 2273.66 402.303C2273.66 414.012 2271.36 424.165 2266.77 432.761C2262.32 441.21 2256.02 447.731 2247.87 452.326C2239.72 456.772 2230.08 458.995 2218.97 458.995ZM2218.97 452.77C2224.3 452.77 2228.6 451.362 2231.86 448.546C2235.27 445.582 2237.72 440.468 2239.2 433.206C2240.68 425.943 2241.42 415.791 2241.42 402.748C2241.42 389.557 2240.68 379.33 2239.2 372.067C2237.72 364.657 2235.27 359.543 2231.86 356.727C2228.6 353.763 2224.3 352.281 2218.97 352.281C2213.63 352.281 2209.33 353.763 2206.07 356.727C2202.81 359.543 2200.37 364.657 2198.74 372.067C2197.25 379.33 2196.51 389.557 2196.51 402.748C2196.51 415.791 2197.25 425.943 2198.74 433.206C2200.37 440.468 2202.81 445.582 2206.07 448.546C2209.33 451.362 2213.63 452.77 2218.97 452.77Z" fill="white"></path><path d="M720.347 122.981V245H709.206V122.981H720.347ZM761.189 187.804V245H750.584V153.486H760.891V167.844H761.844C763.989 163.158 767.326 159.404 771.854 156.584C776.421 153.724 782.062 152.294 788.774 152.294C794.931 152.294 800.333 153.585 804.98 156.167C809.667 158.709 813.301 162.462 815.883 167.427C818.504 172.392 819.815 178.489 819.815 185.718V245H809.21V186.374C809.21 178.867 807.105 172.929 802.895 168.559C798.724 164.19 793.123 162.006 786.093 162.006C781.287 162.006 777.017 163.038 773.283 165.104C769.55 167.169 766.591 170.148 764.406 174.041C762.261 177.894 761.189 182.481 761.189 187.804ZM909.229 173.564L899.518 176.305C898.564 173.564 897.214 171.082 895.466 168.857C893.719 166.633 891.435 164.865 888.615 163.555C885.834 162.244 882.379 161.589 878.248 161.589C872.052 161.589 866.967 163.058 862.995 165.997C859.023 168.937 857.037 172.73 857.037 177.377C857.037 181.309 858.388 184.507 861.089 186.969C863.83 189.392 868.04 191.319 873.72 192.749L887.542 196.145C895.208 198.012 900.948 200.971 904.761 205.022C908.614 209.074 910.54 214.158 910.54 220.274C910.54 225.438 909.11 230.026 906.25 234.037C903.39 238.049 899.399 241.207 894.275 243.511C889.191 245.775 883.292 246.907 876.58 246.907C867.643 246.907 860.275 244.901 854.476 240.889C848.676 236.838 844.963 230.999 843.334 223.373L853.522 220.87C854.833 226.312 857.395 230.423 861.208 233.203C865.061 235.984 870.125 237.374 876.401 237.374C883.431 237.374 889.052 235.805 893.262 232.667C897.472 229.489 899.577 225.517 899.577 220.751C899.577 217.057 898.346 213.959 895.883 211.457C893.421 208.915 889.687 207.048 884.682 205.856L869.728 202.281C861.784 200.375 855.905 197.356 852.092 193.225C848.279 189.094 846.373 183.971 846.373 177.854C846.373 172.809 847.743 168.381 850.484 164.568C853.224 160.715 856.998 157.696 861.804 155.511C866.61 153.327 872.091 152.235 878.248 152.235C886.629 152.235 893.321 154.141 898.326 157.954C903.371 161.728 907.005 166.931 909.229 173.564ZM969.807 153.486V162.721H926.135V153.486H969.807ZM939.779 131.56H950.443V221.109C950.443 224.922 951.099 227.921 952.409 230.105C953.72 232.25 955.428 233.779 957.533 234.693C959.638 235.567 961.883 236.003 964.266 236.003C965.656 236.003 966.848 235.924 967.841 235.765C968.834 235.567 969.707 235.368 970.462 235.169L972.726 244.762C971.693 245.159 970.422 245.516 968.913 245.834C967.404 246.192 965.537 246.37 963.313 246.37C959.42 246.37 955.666 245.516 952.052 243.808C948.477 242.1 945.538 239.558 943.234 236.182C940.93 232.806 939.779 228.616 939.779 223.611V131.56ZM994.011 245V153.486H1004.68V245H994.011ZM999.433 137.757C997.248 137.757 995.381 137.022 993.832 135.552C992.283 134.043 991.509 132.236 991.509 130.131C991.509 128.025 992.283 126.238 993.832 124.768C995.381 123.259 997.248 122.504 999.433 122.504C1001.62 122.504 1003.48 123.259 1005.03 124.768C1006.58 126.238 1007.36 128.025 1007.36 130.131C1007.36 132.236 1006.58 134.043 1005.03 135.552C1003.48 137.022 1001.62 137.757 999.433 137.757ZM1068.77 153.486V162.721H1025.1V153.486H1068.77ZM1038.74 131.56H1049.41V221.109C1049.41 224.922 1050.06 227.921 1051.37 230.105C1052.68 232.25 1054.39 233.779 1056.49 234.693C1058.6 235.567 1060.84 236.003 1063.23 236.003C1064.62 236.003 1065.81 235.924 1066.8 235.765C1067.8 235.567 1068.67 235.368 1069.42 235.169L1071.69 244.762C1070.66 245.159 1069.38 245.516 1067.87 245.834C1066.37 246.192 1064.5 246.37 1062.27 246.37C1058.38 246.37 1054.63 245.516 1051.01 243.808C1047.44 242.1 1044.5 239.558 1042.2 236.182C1039.89 232.806 1038.74 228.616 1038.74 223.611V131.56ZM1151 210.027V153.486H1161.61V245H1151V229.807H1150.17C1148.02 234.494 1144.63 238.407 1139.98 241.544C1135.33 244.643 1129.65 246.192 1122.94 246.192C1117.1 246.192 1111.92 244.921 1107.39 242.378C1102.86 239.797 1099.31 236.023 1096.73 231.058C1094.14 226.093 1092.85 219.996 1092.85 212.767V153.486H1103.46V212.112C1103.46 219.262 1105.56 225.021 1109.77 229.39C1113.98 233.72 1119.39 235.884 1125.98 235.884C1130.11 235.884 1134.08 234.891 1137.9 232.905C1141.71 230.919 1144.85 228.02 1147.31 224.207C1149.77 220.354 1151 215.627 1151 210.027ZM1225.73 153.486V162.721H1182.06V153.486H1225.73ZM1195.7 131.56H1206.37V221.109C1206.37 224.922 1207.02 227.921 1208.33 230.105C1209.64 232.25 1211.35 233.779 1213.46 234.693C1215.56 235.567 1217.81 236.003 1220.19 236.003C1221.58 236.003 1222.77 235.924 1223.76 235.765C1224.76 235.567 1225.63 235.368 1226.39 235.169L1228.65 244.762C1227.62 245.159 1226.35 245.516 1224.84 245.834C1223.33 246.192 1221.46 246.37 1219.24 246.37C1215.34 246.37 1211.59 245.516 1207.98 243.808C1204.4 242.1 1201.46 239.558 1199.16 236.182C1196.85 232.806 1195.7 228.616 1195.7 223.611V131.56ZM1284.4 246.907C1276.5 246.907 1269.51 244.901 1263.43 240.889C1257.39 236.877 1252.67 231.336 1249.25 224.266C1245.83 217.156 1244.13 208.954 1244.13 199.66C1244.13 190.286 1245.83 182.044 1249.25 174.934C1252.67 167.785 1257.39 162.224 1263.43 158.252C1269.51 154.24 1276.5 152.235 1284.4 152.235C1292.31 152.235 1299.28 154.24 1305.31 158.252C1311.35 162.264 1316.08 167.825 1319.49 174.934C1322.95 182.044 1324.68 190.286 1324.68 199.66C1324.68 208.954 1322.97 217.156 1319.55 224.266C1316.14 231.336 1311.39 236.877 1305.31 240.889C1299.28 244.901 1292.31 246.907 1284.4 246.907ZM1284.4 237.195C1290.76 237.195 1296.14 235.487 1300.55 232.071C1304.96 228.655 1308.29 224.107 1310.56 218.428C1312.86 212.748 1314.01 206.492 1314.01 199.66C1314.01 192.828 1312.86 186.552 1310.56 180.833C1308.29 175.113 1304.96 170.526 1300.55 167.07C1296.14 163.614 1290.76 161.886 1284.4 161.886C1278.09 161.886 1272.7 163.614 1268.26 167.07C1263.85 170.526 1260.49 175.113 1258.19 180.833C1255.92 186.552 1254.79 192.828 1254.79 199.66C1254.79 206.492 1255.92 212.748 1258.19 218.428C1260.49 224.107 1263.85 228.655 1268.26 232.071C1272.66 235.487 1278.05 237.195 1284.4 237.195Z" fill="#FFE3CA"></path></svg>